<?xml version="1.0" encoding="UTF-8" standalone="no"?>
<svg width="112px" height="65px" viewBox="0 0 112 65" version="1.1" xmlns="http://www.w3.org/2000/svg" xmlns:xlink="http://www.w3.org/1999/xlink" xmlns:sketch="http://www.bohemiancoding.com/sketch/ns">
    <!-- Generator: Sketch 3.4.3 (16044) - http://www.bohemiancoding.com/sketch -->
    <title>Group</title>
    <desc>Created with Sketch.</desc>
    <defs></defs>
    <g id="Page-1" stroke="none" stroke-width="1" fill="none" fill-rule="evenodd" sketch:type="MSPage">
        <g id="iPad-Pro-Portrait" sketch:type="MSArtboardGroup" transform="translate(-515.000000, -581.000000)">
            <g id="Group" sketch:type="MSLayerGroup" transform="translate(516.000000, 582.000000)">
                <path d="M29.7963177,63.0151498 C29.6372427,62.5644374 29.535613,61.8972163 29.4914255,61.0134665 C28.9346631,61.7381414 28.2254645,62.2971047 27.3638085,62.6903734 C26.5021524,63.0836421 25.5896944,63.2802734 24.6264071,63.2802734 C23.2477574,63.2802734 22.13204,62.895848 21.2792215,62.1269857 C20.4264029,61.3581234 20,60.3860132 20,59.2106259 C20,57.8143012 20.5810568,56.7096305 21.7431878,55.8965807 C22.9053188,55.0835309 24.524766,54.677012 26.6015781,54.677012 L29.4781693,54.677012 L29.4781693,53.0465018 C29.4781693,52.021352 29.1622335,51.2149424 28.5303524,50.6272488 C27.8984713,50.0395552 26.9771759,49.7457128 25.7664387,49.7457128 C24.6617514,49.7457128 23.7470841,50.0285085 23.0224092,50.5941083 C22.2977344,51.1597082 21.9354024,51.8401854 21.9354024,52.6355602 L20.3446607,52.622304 C20.3446607,51.4822668 20.8749026,50.4946912 21.9354024,49.6595476 C22.9959022,48.824404 24.2994136,48.4068385 25.8459758,48.4068385 C27.4455629,48.4068385 28.7070969,48.8067293 29.6306154,49.6065229 C30.554134,50.4063164 31.0291424,51.5220338 31.0556549,52.9537085 L31.0556549,59.7408731 C31.0556549,61.1283603 31.2014714,62.1667508 31.4931088,62.8560756 L31.4931088,63.0151498 L29.7963177,63.0151498 Z M24.8119937,61.8751183 C25.8724934,61.8751183 26.8203009,61.6188347 27.6554445,61.1062598 C28.490588,60.5936849 29.0981569,59.9087891 29.4781693,59.0515517 L29.4781693,55.8965807 L26.6413466,55.8965807 C25.0594345,55.9142557 23.8222033,56.2036794 22.929616,56.7648605 C22.0370287,57.3260417 21.5907417,58.0971018 21.5907417,59.0780641 C21.5907417,59.8822764 21.8890028,60.5494975 22.4855339,61.0797474 C23.082065,61.6099973 23.8575439,61.8751183 24.8119937,61.8751183 L24.8119937,61.8751183 Z M41.2688013,60.82788 L45.6300848,48.6719621 L47.260595,48.6719621 L41.9050979,63.0151498 L40.6192484,63.0151498 L35.2372389,48.6719621 L36.8677492,48.6719621 L41.2688013,60.82788 Z M60.4298697,63.0151498 C60.2707948,62.5644374 60.1691651,61.8972163 60.1249776,61.0134665 C59.5682152,61.7381414 58.8590166,62.2971047 57.9973606,62.6903734 C57.1357045,63.0836421 56.2232465,63.2802734 55.2599592,63.2802734 C53.8813095,63.2802734 52.7655921,62.895848 51.9127735,62.1269857 C51.059955,61.3581234 50.6335521,60.3860132 50.6335521,59.2106259 C50.6335521,57.8143012 51.2146089,56.7096305 52.3767399,55.8965807 C53.5388709,55.0835309 55.1583181,54.677012 57.2351301,54.677012 L60.1117214,54.677012 L60.1117214,53.0465018 C60.1117214,52.021352 59.7957856,51.2149424 59.1639045,50.6272488 C58.5320234,50.0395552 57.610728,49.7457128 56.3999908,49.7457128 C55.2953035,49.7457128 54.3806362,50.0285085 53.6559613,50.5941083 C52.9312865,51.1597082 52.5689545,51.8401854 52.5689545,52.6355602 L50.9782128,52.622304 C50.9782128,51.4822668 51.5084547,50.4946912 52.5689545,49.6595476 C53.6294543,48.824404 54.9329657,48.4068385 56.4795278,48.4068385 C58.079115,48.4068385 59.3406489,48.8067293 60.2641675,49.6065229 C61.187686,50.4063164 61.6626944,51.5220338 61.6892069,52.9537085 L61.6892069,59.7408731 C61.6892069,61.1283603 61.8350235,62.1667508 62.1266609,62.8560756 L62.1266609,63.0151498 L60.4298697,63.0151498 Z M55.4455457,61.8751183 C56.5060455,61.8751183 57.453853,61.6188347 58.2889965,61.1062598 C59.1241401,60.5936849 59.731709,59.9087891 60.1117214,59.0515517 L60.1117214,55.8965807 L57.2748987,55.8965807 C55.6929865,55.9142557 54.4557554,56.2036794 53.563168,56.7648605 C52.6705807,57.3260417 52.2242938,58.0971018 52.2242938,59.0780641 C52.2242938,59.8822764 52.5225549,60.5494975 53.119086,61.0797474 C53.7156171,61.6099973 54.4910959,61.8751183 55.4455457,61.8751183 L55.4455457,61.8751183 Z M69.1450677,48.6719621 L69.1980924,51.1243556 C69.7371798,50.2406058 70.4088196,49.5667566 71.2130319,49.102788 C72.0172442,48.6388193 72.9053995,48.4068385 73.8775243,48.4068385 C75.4152489,48.4068385 76.5596878,48.8398694 77.3108751,49.7059442 C78.0620625,50.572019 78.4420692,51.8711118 78.4509067,53.6032614 L78.4509067,63.0151498 L76.8734212,63.0151498 L76.8734212,53.5900052 C76.8645837,52.308568 76.5928347,51.3541325 76.058166,50.7266701 C75.5234974,50.0992078 74.6684823,49.7854813 73.493095,49.7854813 C72.5121327,49.7854813 71.6438616,50.0925798 70.8882555,50.7067859 C70.1326494,51.320992 69.573686,52.149495 69.2113486,53.1923198 L69.2113486,63.0151498 L67.6338631,63.0151498 L67.6338631,48.6719621 L69.1450677,48.6719621 Z M86.7286507,45 L86.7286507,48.6719621 L89.6980352,48.6719621 L89.6980352,49.9710678 L86.7286507,49.9710678 L86.7286507,59.5287742 C86.7286507,60.3241491 86.8722579,60.9162526 87.1594765,61.3051025 C87.4466952,61.6939524 87.9261223,61.8883744 88.5977722,61.8883744 C88.8628971,61.8883744 89.2915093,61.8441876 89.8836217,61.7558126 L89.9499026,63.0549184 C89.5345402,63.2051558 88.9689488,63.2802734 88.2531115,63.2802734 C87.1660992,63.2802734 86.375155,62.9643376 85.8802551,62.3324565 C85.3853552,61.7005754 85.137909,60.7704427 85.137909,59.5420304 L85.137909,49.9710678 L82.499929,49.9710678 L82.499929,48.6719621 L85.137909,48.6719621 L85.137909,45 L86.7286507,45 Z" id="avant" fill="#FFFFFF" sketch:type="MSShapeGroup"></path>
                <g transform="translate(77.000000, 0.000000)" stroke="#FFFFFF" sketch:type="MSShapeGroup">
                    <ellipse id="Oval-4" cx="12.7266895" cy="6.30538417" rx="2.36622443" ry="1.73760508"></ellipse>
                    <ellipse id="Oval-4" cx="20.2396795" cy="6.38223281" rx="2.36622443" ry="1.73760508"></ellipse>
                    <path d="M12.7266895,8.16083733 L20.843093,27.7538423" id="Line" stroke-linecap="square"></path>
                    <path d="M12.0436905,8.16083733 L20.1600939,27.7538423" id="Line-Copy" stroke-linecap="square" transform="translate(16.049521, 17.940751) scale(-1, 1) translate(-16.049521, -17.940751) "></path>
                    <circle id="Oval-8" cx="16.5" cy="16.5" r="16.5"></circle>
                </g>
                <g transform="translate(43.000000, 0.000000)" stroke="#FFFFFF" sketch:type="MSShapeGroup">
                    <path d="M12,0 C37.5043519,29.9947443 12.0000003,33 12.0000003,33 C12,33 -13.4206524,29.9947443 12,0 Z" id="Path-332"></path>
                    <path d="M12,32.9625663 L12,7.85714286" id="Path-333"></path>
                    <path d="M12.0351187,12.5336357 L15.0201079,11.0021574" id="Path-334"></path>
                    <path d="M12.0235218,12.5762557 L8.98503717,11.0009817" id="Path-335"></path>
                    <path d="M12.0351187,17.2479214 L16.0764917,15.1744549" id="Path-334-Copy"></path>
                    <path d="M12.0235218,17.2905414 L7.99036573,15.1995892" id="Path-335-Copy"></path>
                    <path d="M12.0351187,21.9622071 L16.7500539,19.5431629" id="Path-334-Copy-2"></path>
                    <path d="M12.0235218,22.0048271 L7.31817305,19.5653829" id="Path-335-Copy-2"></path>
                    <path d="M12.0351187,26.6764928 L17.4236161,23.9118708" id="Path-334-Copy-3"></path>
                    <path d="M12.0235218,26.7191128 L6.64598038,23.9311766" id="Path-335-Copy-3"></path>
                </g>
                <g id="Triangle-147" sketch:type="MSShapeGroup" stroke="#FFFFFF">
                    <path d="M16.5,0 L18.8192885,4.67275264 L14.1807115,4.67275264 L16.5,0 Z M24.2434626,1.92378842 L24.0975483,7.1384241 L20.001928,4.96074414 L24.2434626,1.92378842 Z M30.1843922,7.21945959 L27.6869865,11.7994903 L25.0264081,7.99979051 L30.1843922,7.21945959 Z M33.0169605,14.7226469 L28.661688,17.594113 L28.0963877,12.9901113 L33.0169605,14.7226469 Z M32.0540583,22.6903372 L26.8605092,23.1810147 L28.5228265,18.8505301 L32.0540583,22.6903372 Z M27.5475061,29.2645801 L22.6972571,27.3439551 L26.1443915,24.2401413 L27.5475061,29.2645801 Z M20.48798,33 L17.1071431,29.0271347 L21.6079345,27.9049614 L20.48798,33 Z M12.51202,33 L11.3920655,27.9049614 L15.8928569,29.0271347 L12.51202,33 Z M5.45249391,29.2645801 L6.8556085,24.2401413 L10.3027429,27.3439551 L5.45249391,29.2645801 Z M0.945941743,22.6903372 L4.4771735,18.8505301 L6.1394908,23.1810147 L0.945941743,22.6903372 Z M-0.0169604846,14.7226469 L4.90361233,12.9901113 L4.33831201,17.594113 L-0.0169604846,14.7226469 Z M2.8156078,7.21945959 L7.97359189,7.99979051 L5.31301347,11.7994903 L2.8156078,7.21945959 Z M8.75653735,1.92378842 L12.998072,4.96074414 L8.90245167,7.1384241 L8.75653735,1.92378842 Z"></path>
                </g>
            </g>
        </g>
    </g>
</svg>